<svg width="106" height="106" viewBox="0 0 106 106" fill="none" xmlns="http://www.w3.org/2000/svg">
<path d="M83.8744 83.9163H83.9163H83.8744ZM83.8744 83.9163C81.1241 86.6436 76.1399 85.9644 72.6446 85.9644C68.3542 85.9644 66.2881 86.8035 63.226 89.8656C60.6189 92.4732 57.1235 97.1664 52.9997 97.1664C48.8758 97.1664 45.3805 92.4732 42.7732 89.8656C39.7112 86.8035 37.6451 85.9644 33.3546 85.9644C29.8593 85.9644 24.8751 86.6436 22.1249 83.9163C19.3527 81.1674 20.0349 76.1625 20.0349 72.6446C20.0349 68.1992 19.0627 66.1552 15.8969 62.9893C11.1877 58.2802 8.8331 55.9253 8.83301 52.9997C8.83305 50.0736 11.1876 47.7191 15.8968 43.0099C18.7228 40.1839 20.0349 37.3836 20.0349 33.3546C20.0349 29.8592 19.3557 24.875 22.083 22.1247C24.8321 19.3525 29.8369 20.0348 33.3547 20.0348C37.3835 20.0348 40.1839 18.7228 43.0098 15.8969C47.7191 11.1876 50.0736 8.83301 52.9997 8.83301C55.9257 8.83301 58.2802 11.1876 62.9893 15.8969C65.8146 18.7222 68.6148 20.0348 72.6446 20.0348C76.1399 20.0348 81.1246 19.3556 83.8748 22.083C86.6467 24.8321 85.9644 29.8369 85.9644 33.3546C85.9644 37.8001 86.9369 39.8441 90.1023 43.0099C94.8118 47.7191 97.1664 50.0736 97.1664 52.9997C97.1664 55.9253 94.8118 58.2802 90.1023 62.9893C86.9365 66.1552 85.9644 68.1992 85.9644 72.6446C85.9644 76.1625 86.6467 81.1674 83.8744 83.9163Z" fill="url(#paint0_radial_1_1332)"/>
<path d="M39.75 56.9433C39.75 56.9433 45.05 59.8221 47.7 64.0413C47.7 64.0413 55.65 47.4788 66.25 41.958" stroke="#0A0F1C" stroke-width="8.83333" stroke-linecap="round" stroke-linejoin="round"/>
<defs>
<radialGradient id="paint0_radial_1_1332" cx="0" cy="0" r="1" gradientUnits="userSpaceOnUse" gradientTransform="translate(93.9251 8.83301) rotate(127.968) scale(116.716 88.4282)">
<stop offset="0.0172803" stop-color="#00E19D"/>
<stop offset="0.774038" stop-color="#00753D"/>
</radialGradient>
</defs>
</svg>
