<svg width="25" height="25" viewBox="0 0 25 25" fill="none" xmlns="http://www.w3.org/2000/svg">
<path d="M13.5 11.6875L18.5 6.6875" stroke="#ADB5C5" stroke-width="1.5"/>
<path d="M19.5 7.6875L17.5 5.6875L20 4.1875L21 5.1875L19.5 7.6875Z" stroke="#ADB5C5" stroke-width="1.5" stroke-linejoin="round"/>
<path d="M4.52513 9.66237C3.51416 8.65141 3.25095 7.17586 3.73548 5.92298L5.15748 7.34498H7.15748V5.34498L5.73548 3.92298C6.98836 3.43845 8.46391 3.70166 9.47487 4.71263C10.4862 5.72397 10.7493 7.20024 10.264 8.45343L16.7341 14.9235C17.9873 14.4382 19.4635 14.7013 20.4749 15.7126C21.4858 16.7236 21.7491 18.1991 21.2645 19.452L19.8425 18.03H17.8425V20.03L19.2645 21.452C18.0116 21.9366 16.5361 21.6733 15.5251 20.6624C14.5145 19.6518 14.2511 18.177 14.7349 16.9244L8.26312 10.4526C7.01053 10.9364 5.53571 10.673 4.52513 9.66237Z" stroke="#ADB5C5" stroke-width="1.5" stroke-linejoin="round"/>
<path d="M12.703 15.1875L7.09897 20.7916C6.57115 21.3194 5.7154 21.3194 5.18758 20.7916L4.39586 19.9999C3.86805 19.4721 3.86805 18.6163 4.39586 18.0885L9.99994 12.4844" stroke="#ADB5C5" stroke-width="1.5" stroke-linejoin="round"/>
</svg>
