<svg width="25" height="25" viewBox="0 0 25 25" fill="none" xmlns="http://www.w3.org/2000/svg">
<path d="M16 13.1875C19.5899 13.1875 22.5 12.2921 22.5 11.1875C22.5 10.0829 19.5899 9.1875 16 9.1875C12.4101 9.1875 9.5 10.0829 9.5 11.1875C9.5 12.2921 12.4101 13.1875 16 13.1875Z" stroke="#ADB5C5" stroke-width="1.5"/>
<path d="M22.5 15.6875C22.5 16.7921 19.5899 17.6875 16 17.6875C12.4101 17.6875 9.5 16.7921 9.5 15.6875" stroke="#ADB5C5" stroke-width="1.5"/>
<path d="M22.5 11.1875V19.9875C22.5 21.2025 19.5899 22.1875 16 22.1875C12.4101 22.1875 9.5 21.2025 9.5 19.9875V11.1875" stroke="#ADB5C5" stroke-width="1.5"/>
<path d="M9 6.1875C12.5899 6.1875 15.5 5.29207 15.5 4.1875C15.5 3.08293 12.5899 2.1875 9 2.1875C5.41015 2.1875 2.5 3.08293 2.5 4.1875C2.5 5.29207 5.41015 6.1875 9 6.1875Z" stroke="#ADB5C5" stroke-width="1.5"/>
<path d="M6.5 11.1875C4.60819 10.9573 2.86991 10.362 2.5 9.1875M6.5 16.1875C4.60819 15.9573 2.86991 15.362 2.5 14.1875" stroke="#ADB5C5" stroke-width="1.5" stroke-linecap="round"/>
<path d="M6.5 21.1875C4.60819 20.9573 2.86991 20.362 2.5 19.1875V4.1875" stroke="#ADB5C5" stroke-width="1.5" stroke-linecap="round"/>
<path d="M15.5 6.1875V4.1875" stroke="#ADB5C5" stroke-width="1.5" stroke-linecap="round"/>
</svg>
