<svg width="199" height="48" viewBox="0 0 199 48" fill="none" xmlns="http://www.w3.org/2000/svg">
<path d="M19.7042 6.54817C21.4419 6.54817 23.1349 6.88378 24.7309 7.54754C26.2672 8.18894 27.6544 9.09136 28.8403 10.2474L29.0044 10.4114C31.4879 12.895 32.8527 16.1989 32.8527 19.7042C32.8527 23.2094 31.4804 26.5208 28.9969 29.0118L28.624 29.3847C26.3791 31.6296 23.3959 32.8602 20.2262 32.8602H6.54071V14.2598L10.1952 10.6053C11.5749 9.22561 13.0367 8.20385 14.5357 7.59229C16.1989 6.90615 17.9366 6.55562 19.6967 6.55562M19.7042 0C17.161 0 14.5581 0.492231 12.0447 1.53636C9.60597 2.54319 7.43567 4.10938 5.57116 5.9739L0 11.5451V39.4083H20.2337C25.1187 39.4083 29.8098 37.4692 33.2629 34.0087L33.6358 33.6358C37.335 29.9366 39.4083 24.9248 39.4083 19.6967C39.4083 14.4686 37.335 9.46426 33.6358 5.76507C31.7862 3.91548 29.6085 2.47607 27.2442 1.49161C24.88 0.522063 22.3219 0 19.7042 0Z" fill="#00B27C"/>
<path d="M44.6366 32.2039C44.6366 36.3953 42.9734 40.4152 40.0126 43.376L35.3886 48H13.0518V25.6632L17.6832 21.0317C20.6441 18.0709 24.6565 16.4077 28.8479 16.4077C30.9436 16.4077 32.9946 16.8254 34.8889 17.6085C36.7833 18.399 38.5285 19.5476 40.0126 21.0317C42.9734 23.9926 44.6366 28.0124 44.6366 32.1964V32.2039Z" fill="#10F3AF"/>
<path d="M50.7744 38.6087V10.2147H58.0699C58.3617 10.1855 58.6535 10.1709 58.9453 10.1709H59.8208C61.4988 10.1709 63.0746 10.346 64.5483 10.6816C66.022 11.0172 67.306 11.5862 68.4003 12.3887C69.4946 13.1912 70.3555 14.2418 70.9975 15.555C71.6395 16.8681 71.9605 18.4877 71.9896 20.3991C72.0188 22.7483 71.3768 24.7764 70.0782 26.469C68.7796 28.1615 66.9995 29.3142 64.7234 29.9416C64.5337 30 64.3148 30.0438 64.0522 30.1021C63.7895 30.1605 63.4248 30.2043 62.9579 30.2626C62.4909 30.321 61.8927 30.3648 61.1923 30.4085C60.492 30.4523 59.6019 30.4669 58.5222 30.4669C58.0845 30.4669 57.6467 30.4669 57.209 30.4523C56.7567 30.4523 56.2752 30.4231 55.7645 30.3939L55.8521 38.6232H50.7744V38.6087ZM55.7645 25.8708H61.3674C62.345 25.8124 63.2205 25.6081 64.0084 25.2288C64.6796 24.9078 65.307 24.3825 65.8906 23.6675C66.4743 22.9526 66.8245 21.9312 66.9266 20.6034C67.0141 19.5821 66.8828 18.7212 66.5618 18.0208C66.2408 17.3351 65.7885 16.7806 65.2049 16.3575C64.6212 15.9343 63.9354 15.6279 63.1621 15.4382C62.3742 15.2485 61.5571 15.161 60.6817 15.161H55.7791V25.8708H55.7645Z" fill="white"/>
<path d="M79.168 10.2144V38.6083H74.2217V10.2144H79.168Z" fill="white"/>
<path d="M81.4014 28.0155C81.4014 26.6294 81.664 25.36 82.1893 24.1781C82.7146 22.9962 83.4295 21.9749 84.3196 21.114C85.2096 20.2532 86.2602 19.5674 87.4712 19.0713C88.6677 18.5752 89.9371 18.3271 91.2648 18.3271C93.0741 18.3271 94.6062 18.6336 95.8756 19.2464C97.145 19.8592 98.1664 20.6909 98.9543 21.7414C99.7422 22.792 100.326 24.0468 100.676 25.4767C101.026 26.9066 101.201 28.4387 101.201 30.0583H86.4352C86.7125 31.5174 87.4128 32.6263 88.5509 33.3704C89.689 34.1145 90.973 34.4793 92.4029 34.4793C93.4243 34.4793 94.4748 34.2896 95.5254 33.8957C96.5759 33.5017 97.5389 32.9181 98.3998 32.1302L100.151 35.705C99.1294 36.7117 97.9037 37.4705 96.503 38.0103C95.1023 38.5502 93.614 38.8274 92.0382 38.8274C90.4623 38.8274 89.1492 38.5502 87.836 37.9811C86.5228 37.4121 85.3993 36.6388 84.4509 35.6758C83.5025 34.6982 82.7583 33.5601 82.2185 32.2469C81.6786 30.9337 81.4014 29.533 81.4014 28.0447V28.0155ZM86.4206 26.892H96.8532C96.751 26.1917 96.5468 25.5788 96.2404 25.039C95.9485 24.5137 95.5692 24.076 95.1314 23.7404C94.6791 23.4048 94.1976 23.1567 93.6578 22.9962C93.1179 22.8357 92.5634 22.7482 91.9944 22.7482C91.3962 22.7482 90.7979 22.8357 90.2143 23.0108C89.6161 23.1859 89.0616 23.4486 88.5509 23.7988C88.0402 24.1489 87.6025 24.5867 87.2377 25.0973C86.873 25.608 86.6103 26.2063 86.4498 26.8774L86.4206 26.892Z" fill="white"/>
<path d="M106.335 28.2636L99.7986 18.3271H105.562L108.801 24.4116L112.04 18.3271H117.804L111.267 28.2636L118.037 38.6086H112.274L108.787 32.1156L105.256 38.6086H99.4922L106.306 28.2636H106.335Z" fill="white"/>
<path d="M124.997 18.3276V27.7825C124.997 28.4537 125.012 29.1541 125.056 29.869C125.099 30.584 125.231 31.2406 125.464 31.8096C125.698 32.3932 126.062 32.8747 126.559 33.2687C127.055 33.6627 127.755 33.8961 128.645 33.9837C128.733 33.9837 128.806 33.9837 128.893 33.9983C128.981 33.9983 129.054 34.0128 129.141 34.0128C130.148 34.0128 130.95 33.7794 131.578 33.2979C132.205 32.831 132.672 32.2182 133.022 31.4886C133.358 30.7591 133.591 29.9566 133.708 29.0957C133.825 28.2348 133.883 27.3886 133.883 26.5861V18.313H138.786V38.6819H133.883V36.7413L134.861 34.0274L134.496 33.9107C133.708 35.4865 132.658 36.6538 131.359 37.4417C130.06 38.2296 128.703 38.6236 127.317 38.6236C125.931 38.6236 124.705 38.3609 123.786 37.8065C122.867 37.2666 122.137 36.5517 121.598 35.6616C121.058 34.7716 120.678 33.7502 120.489 32.6121C120.299 31.474 120.168 30.3067 120.138 29.0811C120.109 28.6142 120.095 27.9138 120.095 26.9654V23.697C120.095 22.3109 120.095 20.5162 120.138 18.3276H125.012H124.997Z" fill="white"/>
<path d="M142.288 32.4804C143.046 32.9181 143.849 33.2975 144.68 33.6185C145.381 33.9103 146.169 34.1729 147.03 34.4064C147.89 34.6398 148.766 34.7565 149.627 34.7565H150.05C150.196 34.7565 150.342 34.7565 150.473 34.7128C150.765 34.6544 151.115 34.5523 151.48 34.3918C151.859 34.2313 152.18 34.027 152.457 33.779C152.72 33.5309 152.895 33.2537 152.968 32.9473C153.041 32.6409 152.91 32.3199 152.589 31.9989C152.18 31.5611 151.64 31.2839 150.969 31.1672C150.298 31.0504 149.685 30.9337 149.145 30.817C148.357 30.6565 147.526 30.4668 146.636 30.2625C145.746 30.0583 144.899 29.781 144.126 29.4309C143.338 29.0807 142.652 28.5992 142.083 28.0155C141.5 27.4173 141.135 26.6294 140.974 25.6664C140.843 24.8785 140.887 24.1343 141.091 23.434C141.383 22.4856 141.821 21.6831 142.39 21.0411C142.959 20.3991 143.63 19.8592 144.403 19.4652C145.177 19.0567 146.008 18.7649 146.898 18.5898C147.788 18.4147 148.693 18.3271 149.612 18.3271C150.882 18.3271 152.049 18.4439 153.099 18.6919C153.318 18.7503 153.596 18.8232 153.946 18.94C154.267 19.0275 154.675 19.1297 155.186 19.2902C155.697 19.4507 156.295 19.6549 156.995 19.9176L154.923 24.0176C154.602 23.8279 154.252 23.6382 153.873 23.4486C153.552 23.3172 153.172 23.1713 152.735 22.9962C152.297 22.8357 151.845 22.7044 151.363 22.5877C150.955 22.5002 150.546 22.4272 150.152 22.3397C149.744 22.2521 149.335 22.2229 148.941 22.2229C148.211 22.2229 147.511 22.398 146.825 22.7482C146.577 22.8795 146.358 23.0546 146.183 23.2589C146.008 23.4632 145.862 23.682 145.775 23.9301C145.687 24.1781 145.687 24.4116 145.731 24.6596C145.789 24.9077 145.95 25.1265 146.213 25.3454C146.65 25.6664 147.161 25.8853 147.759 25.9874C148.357 26.0895 148.926 26.2208 149.466 26.3522C150.196 26.5127 150.969 26.6878 151.801 26.8774C152.633 27.0671 153.42 27.3152 154.179 27.6216C154.938 27.928 155.624 28.3365 156.222 28.8326C156.835 29.3287 157.272 29.9853 157.535 30.8024C157.798 31.5611 157.885 32.3053 157.754 33.0494C157.637 33.7935 157.389 34.4939 157.01 35.1359C156.63 35.7779 156.149 36.3616 155.551 36.8576C154.952 37.3537 154.31 37.7477 153.61 38.0103C152.91 38.273 152.18 38.4481 151.436 38.4918C150.692 38.5502 149.962 38.5794 149.262 38.6086C148.97 38.6086 148.839 38.6086 148.897 38.6086H149.218C149.379 38.6086 149.539 38.6086 149.685 38.594C149.831 38.594 149.86 38.5794 149.744 38.5794C149.233 38.5794 148.591 38.5648 147.818 38.521C147.044 38.4772 146.227 38.3751 145.366 38.2146C144.505 38.0541 143.615 37.8206 142.725 37.5288C141.835 37.237 140.974 36.8285 140.172 36.3178L142.317 32.4658L142.288 32.4804Z" fill="white"/>
<path d="M174.725 10.1709H179.554L191.358 38.6086H186.252L183.611 32.1157L170.42 32.1595L167.823 38.6086H162.629L174.71 10.1709H174.725ZM181.904 27.7822L177.001 15.6133L172.055 27.8697L181.918 27.7822H181.904Z" fill="white"/>
<path d="M193.372 10.2144H198.362V38.6083H193.372V10.2144Z" fill="white"/>
</svg>
