<svg width="25" height="24" viewBox="0 0 25 24" fill="none" xmlns="http://www.w3.org/2000/svg">
<path d="M12.5 3.98936C13.5532 3.98936 14.5904 4.19681 15.5638 4.59575C16.4973 4.9867 17.3431 5.53723 18.0691 6.23936L18.1649 6.33511C19.6809 7.85106 20.5106 9.85372 20.5106 11.992C20.5106 14.1303 19.6809 16.141 18.1649 17.6569L17.9415 17.8803C16.5771 19.2447 14.758 20.0027 12.8271 20.0027H4.48936V8.67287L6.71543 6.44681C7.56117 5.60106 8.44681 4.9867 9.35638 4.6117C10.3697 4.18883 11.4309 3.98138 12.5 3.98138M12.5 0C10.9521 0 9.36436 0.303191 7.83245 0.933511C6.3484 1.54787 5.02394 2.49734 3.89096 3.6383L0.5 7.02926V24H12.8191C15.7952 24 18.6516 22.8191 20.758 20.7128L20.9814 20.4894C23.2314 18.2394 24.5 15.1835 24.5 12C24.5 8.81649 23.2394 5.76862 20.9894 3.51862C19.8644 2.39362 18.5399 1.51596 17.0957 0.917553C15.6516 0.319149 14.0878 0 12.5 0Z" fill="#10F3AF"/>
</svg>
