<svg width="41" height="47" viewBox="0 0 41 47" fill="none" xmlns="http://www.w3.org/2000/svg">
<path d="M17.9354 11.3369V14.6353M12.167 17.1709H15.5615M25.4392 17.1709H28.8337M25.4392 22.1263H28.8337M12.167 22.1263H15.5615M17.9354 24.7023V28.0006M22.9404 24.7023V28.0006M22.9225 11.3369V14.6353M17.2157 24.6161H23.7849C24.6985 24.6161 25.4392 23.8699 25.4392 22.9494V16.3019C25.4392 15.3815 24.6985 14.6353 23.7849 14.6353H17.2157C16.3021 14.6353 15.5615 15.3815 15.5615 16.3019V22.9494C15.5615 23.8699 16.3021 24.6161 17.2157 24.6161Z" stroke="#C3FFED" stroke-width="2.5" stroke-linecap="round"/>
<g filter="url(#filter0_d_1_1032)">
<path d="M35.5 19.1385V14.3002C35.5 11.5668 35.5 10.2001 34.8265 9.30849C34.153 8.41682 32.6302 7.98394 29.5845 7.11817C27.5035 6.52667 25.6694 5.81406 24.2039 5.16349C22.2057 4.27651 21.2065 3.83301 20.5 3.83301C19.7934 3.83301 18.7944 4.27651 16.7962 5.16349C15.3307 5.81406 13.4964 6.52666 11.4156 7.11817C8.36988 7.98394 6.84705 8.41682 6.17353 9.30849C5.5 10.2001 5.5 11.5668 5.5 14.3002V19.1385C5.5 28.5138 13.938 34.1388 18.1565 36.3653C19.1684 36.8993 19.6744 37.1663 20.5 37.1663C21.3257 37.1663 21.8315 36.8993 22.8434 36.3653C27.062 34.1388 35.5 28.5138 35.5 19.1385Z" stroke="#C3FFED" stroke-width="2.5" stroke-linecap="round" shape-rendering="crispEdges"/>
</g>
<defs>
<filter id="filter0_d_1_1032" x="0.25" y="2.58301" width="40.5" height="43.833" filterUnits="userSpaceOnUse" color-interpolation-filters="sRGB">
<feFlood flood-opacity="0" result="BackgroundImageFix"/>
<feColorMatrix in="SourceAlpha" type="matrix" values="0 0 0 0 0 0 0 0 0 0 0 0 0 0 0 0 0 0 127 0" result="hardAlpha"/>
<feOffset dy="4"/>
<feGaussianBlur stdDeviation="2"/>
<feComposite in2="hardAlpha" operator="out"/>
<feColorMatrix type="matrix" values="0 0 0 0 0 0 0 0 0 0 0 0 0 0 0 0 0 0 0.25 0"/>
<feBlend mode="normal" in2="BackgroundImageFix" result="effect1_dropShadow_1_1032"/>
<feBlend mode="normal" in="SourceGraphic" in2="effect1_dropShadow_1_1032" result="shape"/>
</filter>
</defs>
</svg>
