<svg width="41" height="41" viewBox="0 0 41 41" fill="none" xmlns="http://www.w3.org/2000/svg">
<path d="M20.4997 12.167C11.2949 12.167 3.83301 13.6594 3.83301 15.5003C3.83301 16.8432 7.80326 18.0005 13.5241 18.5285C14.5545 18.6237 15.2614 19.6205 15.3713 20.6493C15.6569 23.324 17.8063 25.5003 20.4997 25.5003C23.193 25.5003 25.3423 23.324 25.628 20.6493C25.738 19.6205 26.4448 18.6237 27.4752 18.5285C33.1962 18.0005 37.1663 16.8432 37.1663 15.5003C37.1663 13.6594 29.7043 12.167 20.4997 12.167Z" stroke="#C3FFED" stroke-width="2.5" stroke-linejoin="round"/>
<path opacity="0.4" d="M20.5 20.5H20.515" stroke="#C3FFED" stroke-width="3.33333" stroke-linecap="round" stroke-linejoin="round"/>
<path opacity="0.4" d="M7.16699 5.5H10.5003M10.5003 5.5H13.8337M10.5003 5.5V12.1667" stroke="#C3FFED" stroke-width="2.5" stroke-linecap="round" stroke-linejoin="round"/>
<path opacity="0.4" d="M27.167 5.5H30.5003M30.5003 5.5H33.8337M30.5003 5.5V12.1667" stroke="#C3FFED" stroke-width="2.5" stroke-linecap="round" stroke-linejoin="round"/>
<path d="M8.83301 35.5003V33.0003C8.83301 28.398 12.564 24.667 17.1663 24.667M32.1663 35.5003V33.0003C32.1663 28.398 28.4353 24.667 23.833 24.667" stroke="#C3FFED" stroke-width="2.5" stroke-linecap="round" stroke-linejoin="round"/>
</svg>
