<svg width="41" height="41" viewBox="0 0 41 41" fill="none" xmlns="http://www.w3.org/2000/svg">
<path opacity="0.4" d="M14.493 4.75255C16.9512 3.22946 19.0967 3.84325 20.3855 4.82093C20.914 5.2218 21.1782 5.42225 21.3337 5.42225C21.4892 5.42225 21.7533 5.2218 22.2818 4.82093C23.5707 3.84325 25.7162 3.22946 28.1743 4.75255C31.4005 6.75141 32.1305 13.3458 24.6892 18.9093C23.2718 19.9689 22.5632 20.4986 21.3337 20.4986C20.1042 20.4986 19.3955 19.9689 17.9782 18.9093C10.5369 13.3458 11.2669 6.75141 14.493 4.75255Z" stroke="#10F3AF" stroke-width="2.5" stroke-linecap="round"/>
<path d="M7.16699 23.833H11.1584C11.6486 23.833 12.1321 23.9435 12.5706 24.1557L15.9739 25.8023C16.4124 26.0145 16.8959 26.1248 17.3862 26.1248H19.1238C20.8045 26.1248 22.167 27.4433 22.167 29.0697C22.167 29.1353 22.122 29.1932 22.0567 29.2112L17.8218 30.3822C17.0621 30.5922 16.2487 30.519 15.542 30.177L11.9038 28.4168" stroke="#10F3AF" stroke-width="2.5" stroke-linecap="round" stroke-linejoin="round"/>
<path d="M22.167 28L29.8217 25.6482C31.1787 25.2254 32.6455 25.7267 33.4955 26.9039C34.1102 27.7549 33.8598 28.9737 32.9645 29.4904L20.4385 36.7175C19.6418 37.1772 18.7018 37.2894 17.8257 37.0294L7.16699 33.8665" stroke="#10F3AF" stroke-width="2.5" stroke-linecap="round" stroke-linejoin="round"/>
</svg>
