<svg width="41" height="41" viewBox="0 0 41 41" fill="none" xmlns="http://www.w3.org/2000/svg">
<path opacity="0.4" d="M23.9363 19.6663L24.7698 18.8328C25.505 18.0977 25.8727 17.73 26.3552 17.8825C26.8378 18.0352 26.914 18.4715 27.0665 19.3442C27.1322 19.7195 27.1663 20.1057 27.1663 20.4997C27.1663 24.1815 24.1815 27.1663 20.4997 27.1663C19.6155 27.1663 18.7717 26.9942 17.9997 26.6817M17.1663 21.3915L16.2594 22.2985C15.5357 23.0222 15.1738 23.3842 14.6959 23.2393C14.2181 23.0945 14.1328 22.6668 13.9621 21.8117C13.8774 21.3875 13.833 20.9488 13.833 20.4997C13.833 16.8178 16.8178 13.833 20.4997 13.833C21.3838 13.833 22.2277 14.0051 22.9997 14.3176" stroke="#10F3AF" stroke-width="2.5" stroke-linecap="round" stroke-linejoin="round"/>
<path d="M35.518 23.9937C36.3878 23.7592 36.8228 23.6419 36.9945 23.4175C37.1663 23.1934 37.1663 22.8325 37.1663 22.111V18.8882C37.1663 18.1667 37.1663 17.8059 36.9945 17.5817C36.8227 17.3574 36.3878 17.24 35.518 17.0055C32.2673 16.1289 30.2328 12.7304 31.0718 9.50099C31.3025 8.61286 31.4178 8.16881 31.3077 7.90836C31.1975 7.64791 30.8815 7.46844 30.2492 7.10947L27.3747 5.47742C26.7543 5.12519 26.4442 4.94907 26.1658 4.98657C25.8873 5.02407 25.5733 5.33742 24.945 5.96409C22.513 8.39034 18.489 8.39024 16.0569 5.96394C15.4287 5.33726 15.1146 5.02392 14.8362 4.98641C14.5578 4.94891 14.2476 5.12502 13.6272 5.47726L10.7527 7.10932C10.1206 7.46826 9.80446 7.64772 9.69431 7.90812C9.58414 8.16854 9.69946 8.61266 9.93009 9.50088C10.7686 12.7304 8.73254 16.1289 5.48137 17.0055C4.61154 17.24 4.17662 17.3574 4.00481 17.5815C3.83301 17.8059 3.83301 18.1667 3.83301 18.8882V22.111C3.83301 22.8325 3.83301 23.1934 4.00481 23.4175C4.17659 23.6419 4.61152 23.7592 5.48137 23.9937C8.73201 24.8704 10.7665 28.2689 9.92754 31.4982C9.69682 32.3864 9.58146 32.8304 9.69161 33.0909C9.80177 33.3514 10.1179 33.5309 10.7501 33.8897L13.6246 35.5219C14.245 35.874 14.5552 36.0502 14.8337 36.0127C15.1121 35.9752 15.4261 35.6617 16.0542 35.035C18.4875 32.6069 22.5143 32.6067 24.9478 35.0349C25.5758 35.6617 25.8898 35.975 26.1683 36.0125C26.4467 36.05 26.757 35.8739 27.3773 35.5217L30.2518 33.8895C30.8842 33.5307 31.2003 33.3512 31.3103 33.0907C31.4205 32.8302 31.3052 32.3862 31.0743 31.498C30.235 28.2689 32.2678 24.8705 35.518 23.9937Z" stroke="#10F3AF" stroke-width="2.5" stroke-linecap="round"/>
</svg>
