<svg width="41" height="41" viewBox="0 0 41 41" fill="none" xmlns="http://www.w3.org/2000/svg">
<path d="M32.1663 25.5H8.83301C6.07158 25.5 3.83301 27.7386 3.83301 30.5C3.83301 33.2614 6.07158 35.5 8.83301 35.5H32.1663C34.9278 35.5 37.1663 33.2614 37.1663 30.5C37.1663 27.7386 34.9278 25.5 32.1663 25.5Z" stroke="#C3FFED" stroke-width="2.5"/>
<path d="M10.5 15.5C10.5 10.7859 10.5 8.42893 11.9645 6.96447C13.4289 5.5 15.7859 5.5 20.5 5.5C25.214 5.5 27.571 5.5 29.0355 6.96447C30.5 8.42893 30.5 10.7859 30.5 15.5C30.5 20.214 30.5 22.571 29.0355 24.0355C27.571 25.5 25.214 25.5 20.5 25.5C15.7859 25.5 13.4289 25.5 11.9645 24.0355C10.5 22.571 10.5 20.214 10.5 15.5Z" stroke="#C3FFED" stroke-width="2.5"/>
<path opacity="0.4" d="M20.4928 30.5H20.5078M12.167 30.5H12.1819M28.8187 30.5H28.8337" stroke="#C3FFED" stroke-width="3.33333" stroke-linecap="round" stroke-linejoin="round"/>
<path opacity="0.4" d="M18 10.5H23" stroke="#C3FFED" stroke-width="2.5" stroke-linecap="round" stroke-linejoin="round"/>
</svg>
