<svg width="41" height="41" viewBox="0 0 41 41" fill="none" xmlns="http://www.w3.org/2000/svg">
<path d="M23.8337 13.833H17.167C13.0303 13.833 12.167 14.6963 12.167 18.833V37.1663H28.8337V18.833C28.8337 14.6963 27.9703 13.833 23.8337 13.833Z" stroke="#10F3AF" stroke-width="2.5" stroke-linejoin="round"/>
<path d="M18.833 20.5H22.1663M18.833 25.5H22.1663M18.833 30.5H22.1663" stroke="#10F3AF" stroke-width="2.5" stroke-linecap="round" stroke-linejoin="round"/>
<path opacity="0.4" d="M35.5003 37.1663V14.1424C35.5003 12.0953 35.5003 11.0717 35.0025 10.2491C34.5047 9.42655 33.6082 8.9688 31.8152 8.05328L24.579 4.35861C22.645 3.37108 22.167 3.71911 22.167 5.8809V13.3388" stroke="#10F3AF" stroke-width="2.5" stroke-linecap="round" stroke-linejoin="round"/>
<path opacity="0.4" d="M5.5 37.1667V22.1667C5.5 20.7878 5.78778 20.5 7.16667 20.5H12.1667" stroke="#10F3AF" stroke-width="2.5" stroke-linecap="round" stroke-linejoin="round"/>
<path d="M37.1663 37.167H3.83301" stroke="#10F3AF" stroke-width="2.5" stroke-linecap="round" stroke-linejoin="round"/>
</svg>
